<?xml version="1.0" encoding="utf-8"?>
<!DOCTYPE svg PUBLIC "-//W3C//DTD SVG 1.1//EN" "http://www.w3.org/Graphics/SVG/1.1/DTD/svg11.dtd">
<svg version="1.1" id="Layer_1" xmlns="http://www.w3.org/2000/svg" xmlns:xlink="http://www.w3.org/1999/xlink" x="0px" y="0px"
	 width="400.683px" height="154.042px" viewBox="0 0 400.683 154.042" enable-background="new 0 0 400.683 154.042"
	 xml:space="preserve">
<path fill="none" stroke="#231F20" stroke-width="2" stroke-dasharray="1770" stroke-dashoffset="1770" stroke-miterlimit="10" d="M38.958,9.802c4.136,4.956,1.613,26.076,1.613,34.169
	c0,14.858-1.613,28.756-1.613,43.196c0,12.077-0.272,23.9-1.613,35.458c-0.563,4.855,1.588,11.321-1.26,15.444
	c-6.616,9.58-14.852-11.212-18.024-16.78C2.335,93.69-10.273,39.999,14.411,13.186c9.114-9.9,17.197-16.952,30.15-9.716
	c12.084,6.75,35.437,20.323,40.218,34.414c5.276,15.548-4.555,35.37-20.586,37.867c-11.851,1.847-27.11,2.641-33.86-9.193
	c7.979-1.501,22.508,25.386,25.777,31.909c5.276,10.532,9.242,22.266,13.749,33.2c2.25,5.459,5.099,17.116,11.076,20.165
	c7.957,4.059,19.726,0.391,25-5.763c7.99-9.32,8.857-20.182,8.829-32.301c-0.011-4.59,1.77-13.159-1.376-16.711
	c-5.27-5.949-11.336,0.861-15.377,5.642c-6.918,8.184-13.591,20.811-4.256,29.702c7.353,7.004,21.303,9.342,30.945,10.485
	c13.357,1.583,29.009-12.352,39.114-21.029c7.69-6.604,9.605-14.893,8.208-24.94c-2.327-16.731-16.02-11.327-16.129,3
	c-0.096,12.513,11.46,10.358,20.32,15.451c6.954,3.997,27.118,21.389,15.25,28.561c-6.947,4.197-19.327,0.731-22.345-6.749
	c-5.371-13.308,6.545-19.966,14.684-27.442c18.688-17.168,22.142-39.67,27.759-63.295c3.534,33.494,4.768,73.69,18.623,105.027
	c-3.743-13.116-10.666-24.711-9.775-39.314c0.803-13.155,16.275-20.628,29.193-20.898c31.668-0.663,19.608,38.512,36.111,52.294
	c6.299,5.262,24.834,5.133,30.619,0.318c7.279-6.056,10.829-23.409,11.335-32.854c0.44-8.227-0.103-23.34-11.249-22.415
	c-11.595,0.962-14.943,17.294-15.364,25.952c-0.545,11.201,12.475,37.29,24.184,20.759c3.73-5.269,3.942-17.139,3.235-23.497
	c-1.129-10.149-3.791-13.899-10.157-21.828c-0.24,8.527,6.199,46.519,14.933,50.501c13.912,6.343,12.294-34.075,12.105-42.496
	c1.673,10.852,5.193,21.131,5.699,32.231c0-11.786-1.561-25.174,1.658-36.594c3.918-13.9,14.722-12.696,23.527-3.352
	c16.459,17.468,12.828,42.613,24.009,62.268">
	<animate attributeType="XML" attributeName="stroke-dashoffset" values="1770;0;1770" dur="10s" repeatCount="indefinite" keyPoints="0;1;0" keyTimes="0;0.3;1" keySpline="1;0;1" calcMode="spline"/>
</path>
</svg>
