<?xml version="1.0" encoding="utf-8"?>
<!DOCTYPE svg PUBLIC "-//W3C//DTD SVG 1.1//EN" "http://www.w3.org/Graphics/SVG/1.1/DTD/svg11.dtd">
<svg version="1.1" id="Layer_1" xmlns="http://www.w3.org/2000/svg" xmlns:xlink="http://www.w3.org/1999/xlink" x="0px" y="0px"
	 width="759px" height="253px" viewBox="0 0 759 253" enable-background="new 0 0 759 253" xml:space="preserve">
<path id="SVGID_1_" stroke="black" stroke-width="0.1" fill="white" d="M755.916,112.323l-0.082-2.029c-3.762,0.154-8.084,0.349-12.797,0.561
			c-33.713,1.521-90.135,4.064-100.025-1.705c-4.613-2.691-12.459-8.518-20.766-14.688c-12.42-9.223-26.496-19.677-34.424-23.157
			c-7.723-3.391-15.227-3.324-21.261-3.275c-4.436,0.039-8.271,0.072-11.075-1.204c-2.285-1.039-6.645-4.48-12.164-8.837
			c-10.957-8.65-27.518-21.723-46.003-30.435C469.01,14.215,333.964,7.503,284.317,6.042
			c-36.069-1.053-69.839,10.163-100.414,33.358c-14.925,11.322-19.521,25.999-24.842,42.993c-1.425,4.553-2.899,9.26-4.646,14.162
			c-7.621,21.398-24.945,28.762-26.955,29.552l0.004-0.075c-0.069-0.003-6.913-0.366-8.757-0.673
			c-8.009-1.335-16.354-1.615-21.945-1.615c-4.415,0-8.1,0.297-11.351,0.56c-5.771,0.466-10.754,0.869-17.589-0.539
			c-8.15-1.677-11.501-1.418-18.178-0.903c-2.397,0.185-5.115,0.395-8.657,0.563c-13.266,0.631-37.487,0.322-37.73,0.319
			l-0.026,2.03c0.244,0.003,24.525,0.314,37.853-0.321c3.572-0.17,6.305-0.381,8.717-0.567c6.488-0.5,9.744-0.752,17.613,0.868
			c7.118,1.464,12.235,1.052,18.162,0.574c3.37-0.272,6.854-0.554,11.188-0.554c5.514,0,13.739,0.276,21.611,1.588
			c0.973,0.162,3.13,0.332,5.088,0.464l-0.054,0.153c0.19,0.067,19.099,7.011,27.154,29.629c1.746,4.901,3.22,9.608,4.646,14.161
			c5.321,16.994,9.917,31.672,24.842,42.994c29.256,22.194,61.445,33.426,95.754,33.426c1.547,0,3.104-0.022,4.66-0.068
			c49.647-1.461,184.693-8.172,213.002-21.514c18.41-8.676,40.344-24.238,54.857-34.536c7.441-5.28,13.32-9.452,15.643-10.507
			l-0.125-0.275c1.242-0.366,2.313-0.754,3.188-1.166c12.361-5.817,24.072-16.341,32.129-28.873
			c3.894-6.057,10.473-13.374,17.916-19.629c0.068-0.025,0.134-0.05,0.201-0.075l-0.027-0.072
			c8.672-7.254,18.495-13.045,26.615-13.708c15.502-1.266,42.305-2.865,42.574-2.881l-0.008-0.124
			c18.641-0.161,39.711-1.111,56.698-1.876C747.839,112.671,752.158,112.477,755.916,112.323z M441.354,150.902l-3.738-3.47
			c-9.863-10.171-20.714-13.028-40.411-18.217l-3.613-0.953c-13.24-3.504-15.562-2.771-18.525-1.169
			c-1.44,0.778-3.073,1.66-7.702,1.776c-8.483,0.211-16.184-1.736-25.107-3.99c-4.48-1.132-9.112-2.303-14.382-3.356
			c-11.146-2.229-16.517,0.05-22.738,2.69c-2.886,1.225-5.871,2.491-9.722,3.403c-5.269,1.248-8.678,3.256-10.135,5.969
			c-0.823,1.533-0.789,2.896-0.667,3.67c-1.173,0.088-2.251,0.224-3.355,0.365c-2.582,0.332-5.506,0.709-10.557,0.538
			c-3.762-0.126-8.779,0.041-14.588,0.233c-9.05,0.301-20.313,0.674-31.833,0.088c-17.087-0.869-23.261-2.884-34.47-6.541
			c-1.079-0.352-2.201-0.717-3.382-1.098c-9.496-3.063-9.409-8.614-9.216-10.042c3.651-2.604,7.905-5.951,13.379-10.295l3.162-2.506
			c9.632-7.628,15.384-12.188,18.772-16.583l0.02,0.021c0.05-0.046,5.178-4.625,19.446-5.695c14.61-1.101,39.51,1.729,55.986,3.599
			l2.113,0.24c5.236,0.593,10.065,1.473,14.45,2.403c1.16,2.34,7.032,13.354,15.591,14.882c6.151,1.099,13.379,0.868,21.747,0.6
			c4.046-0.129,8.23-0.264,12.7-0.264c7.254,0,15.055,1.334,22.598,2.625c6.549,1.121,12.735,2.179,17.756,2.179
			c7.756,0,10.891-2.158,13.922-4.246c1.209-0.833,2.352-1.62,3.779-2.244c4.094-1.791,9.688-4.018,11.696-4.812
			c2.374,0.271,3.714,0.136,5.206-0.016c1.703-0.172,3.632-0.369,7.879,0.102c5.704,0.634,8.656,2.073,11.782,3.596
			c3.146,1.533,6.397,3.119,12.513,4.084c4.207,0.664,7.035,1.733,9.771,2.767c5.24,1.98,10.188,3.851,23.438,3.009
			c19.867-1.261,30.652-1.92,39.649-1.92c1.753,0,4.927-0.059,8.944-0.134c17.122-0.319,48.989-0.914,62.318,1.136
			c9.306,1.432,24.465,2.228,36.001,2.651c-8.31,1.335-17.673,6.993-25.919,13.912c-34.198,12.875-57.615,19.001-70.229,22.3
			c-5.209,1.362-8.65,2.263-10.532,3.015c-4.055,1.622-13.455,0.469-23.407-0.752c-4.979-0.61-10.127-1.242-14.9-1.561
			c-9.079-0.605-19.421-0.579-28.547-0.552c-5.475,0.015-10.648,0.029-15.048-0.091
			C446.047,152.054,443.363,151.519,441.354,150.902z M286.658,137.159c-0.075-0.286-0.28-1.364,0.443-2.671
			c0.82-1.479,3.01-3.529,8.783-4.897c4.018-0.951,7.083-2.251,10.047-3.509c5.912-2.507,11.017-4.672,21.546-2.568
			c5.22,1.044,9.827,2.208,14.283,3.334c9.069,2.292,16.899,4.275,25.655,4.052c5.115-0.128,7.056-1.177,8.616-2.02
			c2.283-1.233,3.932-2.125,17.041,1.345l3.615,0.955c19.346,5.095,30.002,7.901,39.509,17.704l0.788,0.731
			c-0.982-0.211-1.841-0.343-2.805-0.488c-2.734-0.41-6.479-0.974-16.846-4.199c-14.201-4.418-38.395-3.377-46.518-2.604
			c-6.015,0.573-17.226,1.741-30.758,3.205c-8.965,0.968-16.468-1.066-24.415-3.222c-2.348-0.636-4.775-1.295-7.271-1.882
			c-10.889-2.563-12.544-2.902-19.399-3.229C288.137,137.158,287.374,137.148,286.658,137.159z M351.207,47.295
			c10.742,1.829,10.742,1.829,16.813,3.714c2.401,0.746,5.69,1.768,10.935,3.305c5.651,1.657,10.334,3.158,14.465,4.482
			c9.521,3.052,17.047,5.464,29.749,7.698c0.181,0.067,0.575,0.211,1.133,0.41c-2.606,0.515-6.446,1.26-12.219,2.084
			c-5.554,0.793-10.065,0.207-16.896-0.684c-6.657-0.867-15.773-2.054-30.326-2.528c-25.158-0.82-31.2-12.29-32.247-14.885
			C333.148,50.238,337.894,45.029,351.207,47.295z M330.621,51.389c0.983,2.774,6.974,15.53,34.174,16.417
			c14.455,0.471,23.515,1.651,30.131,2.513c4.658,0.607,8.264,1.077,11.875,1.077c1.811,0,3.623-0.118,5.569-0.396
			c6.087-0.87,10.058-1.654,12.686-2.173c1.341-0.265,2.354-0.464,3.154-0.582c7.208,2.381,20.462,6.288,29.815,6.288
			c5.485,0,14.105-0.393,22.441-0.773c11.482-0.523,23.355-1.067,26.04-0.528c1.5,0.3,4.067,0.388,7.319,0.498
			c7.129,0.243,17.901,0.61,23.088,3.851c2.502,1.564,3.85,2.634,4.934,3.494c2.292,1.818,3.338,2.648,10.382,4.63
			c5.96,1.676,15.494,3.594,23.906,5.286c6.208,1.249,12.073,2.428,15.835,3.369c9.488,2.373,48.118,16.724,50.408,18.728
			c0.446,0.391,1.232,0.705,2.24,0.956c-11.715-0.392-28.508-1.189-38.479-2.724c-13.502-2.077-45.484-1.481-62.665-1.159
			c-4.007,0.075-7.172,0.134-8.906,0.134c-9.059,0-19.869,0.66-39.778,1.924c-12.813,0.815-17.563-0.981-22.592-2.882
			c-2.831-1.07-5.759-2.176-10.172-2.873c-5.815-0.918-8.929-2.436-11.939-3.903c-3.288-1.603-6.395-3.117-12.447-3.79
			c-4.462-0.495-6.505-0.287-8.309-0.104c-1.396,0.141-2.648,0.268-4.926-0.002l-0.059-0.151c-0.008,0.003-0.113,0.044-0.273,0.107
			c-2.293-0.296-5.583-0.974-10.947-2.386c-9.783-2.575-12.483-2.17-14.865-1.816c-1.924,0.288-3.584,0.535-9.755-1.375
			c-9.148-2.832-16.955-1.886-24.505-0.972c-3.759,0.455-7.646,0.926-11.666,0.926c-6.381,0-10.815,0.52-14.727,0.979
			c-3.542,0.416-6.599,0.776-10.211,0.624c-3.415-0.142-7.789-1.191-13.326-2.519c-6.449-1.546-14.475-3.471-23.752-4.521
			l-2.112-0.24c-16.552-1.878-41.561-4.718-56.367-3.607c-8.421,0.632-13.812,2.436-16.973,3.943c1.16-2.427,1.77-5.04,2.048-8.289
			c0.976-11.39,2.963-19.129,20.969-22.792c2.702-0.55,5.753-1.259,8.983-2.01C266.326,50.043,295.587,43.252,330.621,51.389z
			 M420.451,100.063c-2.559,1.03-5.916,2.402-8.631,3.59c-1.605,0.703-2.883,1.582-4.117,2.432c-2.903,2-5.646,3.888-12.77,3.888
			c-4.85,0-10.953-1.044-17.414-2.15c-7.626-1.305-15.513-2.654-22.94-2.654c-4.502,0-8.703,0.134-12.765,0.264
			c-8.254,0.263-15.383,0.492-21.326-0.569c-6.379-1.14-11.335-8.746-13.34-12.315c2.289,0.514,4.454,1.029,6.45,1.507
			c5.645,1.354,10.103,2.422,13.715,2.573c3.774,0.159,6.906-0.211,10.532-0.636c3.857-0.453,8.228-0.965,14.491-0.965
			c4.142,0,8.091-0.478,11.91-0.94c7.677-0.93,14.928-1.807,23.66,0.895c6.613,2.048,8.486,1.768,10.654,1.443
			c2.19-0.325,4.67-0.697,14.049,1.771C415.898,99.064,418.424,99.656,420.451,100.063z M156.329,97.237
			c1.759-4.939,3.239-9.666,4.67-14.236c5.217-16.662,9.723-31.052,24.131-41.982c30.196-22.909,63.537-34.002,99.127-32.946
			c49.529,1.457,184.201,8.127,212.196,21.32c18.275,8.612,34.726,21.598,45.61,30.191c5.848,4.616,10.072,7.951,12.582,9.092
			c3.213,1.46,7.258,1.425,11.933,1.386c6.144-0.055,13.102-0.113,20.427,3.104c7.717,3.388,21.695,13.769,34.029,22.928
			c7.183,5.334,14.017,10.409,18.787,13.475c-10.766-4.751-39.877-15.309-47.359-17.179c-3.808-0.952-9.694-2.136-15.927-3.39
			c-8.377-1.685-17.872-3.595-23.757-5.25c-6.65-1.871-7.535-2.572-9.67-4.266c-1.123-0.891-2.52-2-5.119-3.625
			c-5.648-3.53-16.311-3.894-24.095-4.159c-3.034-0.104-5.653-0.192-6.99-0.46c-2.927-0.586-14.393-0.063-26.53,0.491
			c-8.314,0.379-16.91,0.771-22.35,0.771c-8.689,0-21.26-3.625-28.504-5.978v-0.428c-0.332,0-0.691,0.026-1.087,0.072
			c-2.804-0.928-4.583-1.587-4.644-1.609l-0.18-0.049c-12.621-2.214-20.102-4.612-29.571-7.648
			c-4.144-1.328-8.839-2.833-14.514-4.497c-5.229-1.533-8.509-2.552-10.904-3.295c-6.142-1.908-6.302-1.943-17.075-3.777
			c-13.641-2.32-19.105,2.699-20.363,4.142c-35.536-8.281-65.114-1.417-84.777,3.154c-3.216,0.748-6.254,1.454-8.928,1.998
			c-19.307,3.927-21.599,13.067-22.588,24.608c-0.871,10.162-5.004,13.435-22.398,27.21l-3.164,2.507
			c-20.181,16.017-23.39,18.109-39.797,19.319c-7.566,0.558-12.953-0.11-16.371-0.863c-0.798-0.243-1.53-0.445-2.186-0.613
			C136.881,123.791,149.834,115.474,156.329,97.237z M127.524,126.927l-0.097,0.637c-0.014-0.007-0.027-0.014-0.042-0.021
			l0.046-0.876L127.524,126.927z M547.148,190.416c-14.455,10.256-36.301,25.756-54.547,34.355
			c-27.996,13.192-162.668,19.863-212.197,21.32c-35.579,1.035-68.93-10.038-99.127-32.947
			c-14.408-10.93-18.914-25.319-24.131-41.981c-1.432-4.571-2.911-9.298-4.67-14.236c-5.902-16.571-17.134-24.948-23.567-28.565
			c0.224,0.05,0.47,0.108,0.736,0.172c0.73,0.244,1.673,0.515,2.833,0.78c5.58,1.708,14.504,5.46,20.496,13.05
			c10.007,12.676,34.666,24.403,57.357,27.279c16.268,2.063,35.688,2.328,51.293,2.542c6.179,0.085,12.015,0.165,16.691,0.349
			c6.372,0.25,11.351,0.852,16.166,1.436c7.466,0.903,15.189,1.839,28.101,1.446c6.806-0.206,12.715-0.639,18.43-1.058
			c11.998-0.879,22.361-1.637,36.18,0.09c8.825,1.104,17.192,2.9,25.284,4.639c10.379,2.23,20.182,4.336,28.646,4.336
			c7.051,0,19.164,0.512,31.99,1.053c13.85,0.585,28.172,1.189,37.188,1.189c27.342,0,46.804-1.048,58.125-3.123
			C555.533,184.467,551.715,187.176,547.148,190.416z M597.449,150.152c-7.74,12.04-19.436,22.557-31.284,28.134
			c-7.541,3.548-29.701,5.348-65.864,5.348c-8.973,0-23.273-0.604-37.103-1.188c-12.847-0.542-24.982-1.054-32.075-1.054
			c-8.25,0-17.949-2.085-28.22-4.291c-1.632-0.352-3.279-0.703-4.937-1.053l0.344-0.613c-25.956-14.513-65.407-13.142-84.366-12.484
			c-2.988,0.104-5.349,0.187-7.085,0.187c-13.541,0-14.733,7.599-14.777,7.923l2.01,0.285c0.04-0.253,1.106-6.178,12.767-6.178
			c1.771,0,4.147-0.082,7.155-0.188c17.76-0.617,53.667-1.855,79.048,10.059c-5.057-1.01-10.245-1.936-15.618-2.607
			c-14.021-1.752-24.476-0.986-36.581-0.1c-5.693,0.418-11.581,0.849-18.343,1.054c-12.758,0.388-20.063-0.497-27.795-1.433
			c-4.855-0.588-9.877-1.196-16.331-1.449c-4.702-0.186-10.551-0.266-16.743-0.35c-15.554-0.213-34.912-0.479-51.066-2.525
			c-21.857-2.771-46.464-14.422-56.019-26.523c-3.96-5.018-9.032-8.427-13.704-10.714c0.995,0.048,2.033,0.081,3.147,0.081
			c1.741,0,3.631-0.066,5.672-0.217c11.563-0.853,17.067-2.345,25.513-8.055c0.237,2.867,1.988,7.791,10.611,10.571
			c1.178,0.381,2.298,0.746,3.375,1.098c11,3.588,17.64,5.754,34.997,6.637c11.603,0.589,22.915,0.215,32.003-0.086
			c5.773-0.191,10.757-0.355,14.454-0.233c5.209,0.175,8.225-0.212,10.882-0.554c2.314-0.296,4.313-0.552,7.359-0.408
			c6.676,0.318,8.303,0.653,19.031,3.178c2.462,0.58,4.873,1.232,7.205,1.865c8.136,2.206,15.819,4.291,25.164,3.279
			c13.524-1.462,24.726-2.629,30.732-3.201c7.472-0.711,31.909-1.775,45.722,2.521c10.516,3.271,14.349,3.848,17.148,4.269
			c1.068,0.161,1.992,0.3,3.102,0.556c1.025,0.236,1.775,0.49,2.57,0.758c0.248,0.084,0.498,0.168,0.757,0.252l0.372,0.346
			l0.165-0.178c2.09,0.633,5.015,1.211,12.351,1.41c4.429,0.119,9.616,0.106,15.108,0.09c9.092-0.025,19.397-0.053,28.406,0.549
			c4.717,0.314,9.837,0.941,14.788,1.549c6.445,0.791,12.665,1.554,17.519,1.554c2.841,0,5.215-0.262,6.89-0.932
			c1.764-0.706,5.156-1.593,10.292-2.937c12.034-3.146,33.871-8.859,65.491-20.523C605.742,139.178,600.67,145.143,597.449,150.152z">
</path>
<clipPath id="SVGID_2_">
	<use xlink:href="#SVGID_1_"  overflow="visible"/>
</clipPath>
<linearGradient id="SVGID_3_" gradientUnits="userSpaceOnUse" x1="1.3774" y1="129.2739" x2="773.957" y2="129.2739">
	<stop  offset="0" style="stop-color:#0007E7"/>
	<stop  offset="1" style="stop-color:#FF1748"/>
</linearGradient>
<rect x="1.377" y="-5.655" clip-path="url(#SVGID_2_)" fill="url(#SVGID_3_)" width="772.58" height="269.858">
	<animate attributeName="x" values="-770;1.377;-770" dur="10s" repeatCount="indefinite" keyPoints="0;1;0" keyTimes="0;0.9;1" keySpline="1;0;1" calcMode="spline" />
</rect>
</svg>
