<?xml version="1.0" encoding="utf-8"?>
<!DOCTYPE svg PUBLIC "-//W3C//DTD SVG 1.1//EN" "http://www.w3.org/Graphics/SVG/1.1/DTD/svg11.dtd">
<svg version="1.1" xmlns="http://www.w3.org/2000/svg" xmlns:xlink="http://www.w3.org/1999/xlink" x="0px" y="0px" width="100%" height="100%" viewBox="0 0 1096 780" enable-background="new 0 0 1096 780" xml:space="preserve">
<animate  id="zoom1" attributeName="viewBox" from="0 0 1096 780" to="300 100 540 300"  dur="2s" begin="1s;zoom2.end+3s" fill="freeze"/>
<animate  id="zoom2" attributeName="viewBox" from="300 100 540 300" to="0 0 1096 780"  dur="2s" begin="zoom1.end+3s" fill="freeze"/>
<g id="_x31_">
	<g>
		<circle fill="#FFFFFF" cx="75.586" cy="304.256" r="22.64"/>
		<circle fill="#FFFFFF" cx="101.656" cy="277.5" r="22.64"/>
		<circle fill="#FFFFFF" cx="124.982" cy="280.244" r="20.582"/>
		<circle fill="#FFFFFF" cx="138.704" cy="303.57" r="20.582"/>
		<circle fill="#FFFFFF" cx="105.772" cy="310.431" r="20.582"/>
		<circle fill="#FFFFFF" cx="158.6" cy="311.803" r="15.78"/>
	</g>
	<g>
		<path fill="#FFCE75" d="M90.331,431.628c0,0,1.61,39.507,4.832,48.362l-23.354,0.682c0,0,10.469-38.826,8.858-47.682
			L90.331,431.628z"/>
		<g>
			<path fill="#778514" d="M46.792,408.88c0-7.979,5.467-14.626,12.84-16.558c0.17-6.324,4.389-11.581,10.163-13.377
				c0.511-9.028,7.925-16.211,17.081-16.211c8.729,0,15.858,6.533,16.955,14.962c8.601,1.903,15.045,9.548,15.045,18.721
				c0,2.743-0.596,5.34-1.632,7.7c4.144,2.025,7.021,6.24,7.021,11.162c0,5.043-3.009,9.361-7.316,11.323
				c1.607,2.099,2.6,4.692,2.6,7.54c0,6.883-5.579,12.463-12.462,12.463c-1.943,0-3.76-0.483-5.399-1.276
				c-1.593,7.839-8.522,13.739-16.832,13.739c-7.355,0-13.581-4.644-16.03-11.141c-1.133,0.234-2.305,0.362-3.506,0.362
				c-9.488,0-17.179-7.691-17.179-17.179c0-3.882,1.335-7.423,3.506-10.299C48.653,417.721,46.792,413.523,46.792,408.88z"/>
		</g>
	</g>
	<g>
		<path fill="#64C3E8" d="M121.249,446.995c0.497-1.007,1.077-1.967,1.748-2.856c-2.993-3.092-4.854-7.289-4.854-11.933
			c0-7.979,5.466-14.626,12.839-16.558c0.171-6.323,4.39-11.58,10.164-13.377c0.511-9.029,7.925-16.212,17.081-16.212
			c8.729,0,15.858,6.533,16.955,14.963c8.601,1.902,15.045,9.548,15.045,18.721c0,2.743-0.596,5.34-1.632,7.7
			c4.144,2.025,7.021,6.24,7.021,11.163c0,3.241-1.248,6.179-3.281,8.389h12.98v-42.112h-14.562V390.66h0v-43.224h8.285v12.57h7.732
			v-12.57h8.285v15.194h8.008v-7.732h23.888v7.732h8.008v-15.194h8.285v12.57h7.733v-12.57h8.285v43.224h0v14.223h-10.679v42.112
			h61.661v-121.64h-14.886v-16.666h0v-50.652h9.708v14.731h9.062v-14.731h9.708v17.805h9.384v-9.062h27.993v9.062h9.385v-17.805
			h9.708v14.731h9.062v-14.731h9.708v50.652h0v16.666h-14.886v121.64h65.08v-16.036h0l31.613-17.442V313.226l15.262-15.262v-47.966
			h69.041v47.966l15.262,15.262v100.291l31.613,17.442l0,0l0,0l0,0l0,0v16.036h59.335v-121.64h-14.886v-16.666l0,0v-50.652h9.708
			v14.731h9.062v-14.731h9.709v17.805h9.384v-9.062h27.993v9.062h9.384v-17.805h9.709v14.731h9.062v-14.731h9.708v50.652l0,0v16.666
			h-14.886v121.64h54.69v-42.112h-14.563V390.66l0,0v-43.224h8.284v12.57h7.733v-12.57h8.284v15.194h8.008v-7.732h23.888v7.732
			h8.008v-15.194h8.285v12.57h7.732v-12.57h8.285v43.224l0,0v14.223h-10.679v42.112h35.144c-1.36-2.27-2.157-4.916-2.157-7.755
			c0-3.417,1.175-6.533,3.086-9.065c-2.634-2.722-4.272-6.415-4.272-10.503c0-7.022,4.812-12.873,11.301-14.573
			c0.15-5.566,3.864-10.193,8.946-11.775c0.45-7.946,6.976-14.269,15.034-14.269c7.684,0,13.959,5.75,14.924,13.17
			c7.571,1.675,13.243,8.403,13.243,16.478c0,2.415-0.524,4.7-1.437,6.778c3.646,1.782,6.18,5.492,6.18,9.825
			c0,4.438-2.648,8.239-6.439,9.966c1.415,1.848,2.289,4.131,2.289,6.637c0,0.418-0.029,0.829-0.074,1.234
			c16.893-3.54,34.542-5.893,52.741-6.921c-2.335-1.908-4.161-4.419-5.245-7.295c-1.134,0.234-2.305,0.362-3.507,0.362
			c-9.488,0-17.179-7.691-17.179-17.179c0-3.882,1.335-7.422,3.506-10.299c-2.993-3.092-4.854-7.289-4.854-11.933
			c0-7.979,5.466-14.625,12.839-16.557c0.171-6.324,4.39-11.581,10.163-13.377c0.512-9.028,7.926-16.212,17.082-16.212
			c8.729,0,15.857,6.533,16.955,14.963c8.601,1.903,15.045,9.548,15.045,18.721c0,2.743-0.596,5.34-1.633,7.7
			c4.144,2.025,7.021,6.241,7.021,11.163c0,5.042-3.009,9.36-7.316,11.323c1.607,2.099,2.601,4.691,2.601,7.54
			c0,6.883-5.58,12.463-12.463,12.463c-1.943,0-3.76-0.483-5.399-1.277c-0.744,3.663-2.664,6.893-5.336,9.305
			c14.285,0.051,28.287,0.916,41.914,2.533V0H0v446.995H121.249z M907.464,217.653c1.902,0,3.763,0.172,5.575,0.485
			c-0.413-2.075-0.634-4.219-0.634-6.415c0-18.012,14.602-32.613,32.613-32.613c8.749,0,16.686,3.451,22.543,9.058
			c3.418-1.376,7.148-2.14,11.059-2.14c16.374,0,29.648,13.274,29.648,29.648c0,1.871-0.181,3.699-0.513,5.473
			c8.337,2.776,15.023,9.15,18.223,17.284c0.354-0.016,0.71-0.027,1.067-0.027c12.554,0,22.73,10.177,22.73,22.73
			s-10.177,22.73-22.73,22.73c-6.654,0-12.64-2.86-16.797-7.417c-3.634,1.588-7.644,2.476-11.863,2.476
			c-7.821,0-14.931-3.034-20.229-7.982c-4.559,10.51-15.022,17.865-27.209,17.865c-9.913,0-18.683-4.87-24.065-12.341
			c-5.426,4.027-12.143,6.412-19.419,6.412c-6.781,0-13.077-2.071-18.295-5.613c-6.273,8.779-16.542,14.507-28.154,14.507
			c-19.104,0-34.59-15.486-34.59-34.59s15.486-34.59,34.59-34.59c7.938,0,15.248,2.681,21.086,7.178
			C888.079,222.382,897.217,217.653,907.464,217.653z M753.542,95.636c0.211,0,0.415,0.021,0.623,0.031
			c1.849-4.71,5.713-8.398,10.539-10.004c-0.192-1.029-0.305-2.086-0.305-3.17c0-9.468,7.676-17.143,17.144-17.143
			c2.264,0,4.42,0.45,6.398,1.247c3.387-3.244,7.971-5.247,13.03-5.247c10.414,0,18.856,8.443,18.856,18.857
			c0,1.275-0.13,2.52-0.371,3.724c1.051-0.182,2.126-0.296,3.229-0.296c10.415,0,18.857,8.443,18.857,18.857
			s-8.442,18.857-18.857,18.857c-4.211,0-8.087-1.398-11.226-3.731c-3.111,4.329-8.179,7.159-13.917,7.159
			c-7.052,0-13.104-4.261-15.736-10.345c-3.063,2.865-7.167,4.631-11.692,4.631c-2.444,0-4.766-0.52-6.87-1.442
			c-2.403,2.636-5.854,4.299-9.702,4.299c-7.258,0-13.143-5.884-13.143-13.143C740.399,101.52,746.284,95.636,753.542,95.636z
			 M523.043,241.097l26.832-37.068l26.831,37.067h0.255l13.674,8.902h-79.942l12.622-8.901H523.043z M100.034,115.8
			c24.162-9.985,33.623-43.516,18.242-64.657c-0.873-1.199,0.214-2.862,1.581-2.287c24.228,10.197,54.843-6.944,58.813-32.929
			c0.224-1.466,2.21-1.523,2.776-0.153c9.984,24.163,43.516,33.623,64.657,18.242c1.199-0.872,2.862,0.215,2.287,1.581
			c-6.607,15.699-1.728,34.07,9.589,46.146c7.873-18.334,26.086-31.178,47.304-31.178c13.805,0,26.33,5.446,35.572,14.293
			c5.394-2.17,11.28-3.377,17.451-3.377c25.839,0,46.786,20.947,46.786,46.785c0,2.953-0.286,5.836-0.809,8.637
			c13.155,4.381,23.707,14.439,28.756,27.274c0.558-0.026,1.119-0.043,1.684-0.043c19.81,0,35.869,16.059,35.869,35.869
			c0,19.81-16.059,35.868-35.869,35.868c-10.5,0-19.946-4.513-26.506-11.704c-5.733,2.507-12.062,3.907-18.72,3.907
			c-12.342,0-23.561-4.787-31.921-12.596c-7.193,16.586-23.706,28.191-42.936,28.191c-15.642,0-29.481-7.684-37.976-19.475
			c-8.561,6.355-19.162,10.118-30.643,10.118c-10.701,0-20.637-3.268-28.87-8.857c-9.899,13.853-26.103,22.893-44.427,22.893
			c-30.146,0-54.583-24.438-54.583-54.583c0-12.797,4.416-24.556,11.791-33.862c-6.298-10.942-16.944-19.372-29.747-21.328
			C98.721,118.352,98.664,116.366,100.034,115.8z"/>
		<path fill="#F68B1F" d="M100.187,118.576c12.803,1.956,23.449,10.386,29.747,21.328c4.32-5.453,9.658-10.058,15.73-13.532
			c-3.058-6.107-4.775-12.925-4.775-20.122c0-26.135,22.542-47.322,50.351-47.322c27.808,0,50.35,21.187,50.35,47.322
			c0,1.814-0.119,3.602-0.331,5.364c1.569-0.144,3.156-0.228,4.763-0.228c3.001,0,5.938,0.271,8.798,0.765
			c-0.653-3.273-1.001-6.657-1.001-10.122c0-7.205,1.486-14.061,4.16-20.286c-11.317-12.076-16.196-30.447-9.589-46.146
			c0.575-1.366-1.088-2.453-2.287-1.581c-21.142,15.381-54.673,5.921-64.657-18.242c-0.566-1.37-2.552-1.313-2.776,0.153
			c-3.97,25.985-34.585,43.126-58.813,32.929c-1.367-0.575-2.454,1.088-1.581,2.287c15.381,21.141,5.92,54.672-18.242,64.657
			C98.664,116.366,98.721,118.352,100.187,118.576z"/>
		<path fill="#FFC709" d="M205.999,130.51c8.497-10.503,21.039-17.591,35.26-18.897c0.211-1.762,0.331-3.549,0.331-5.364
			c0-26.135-22.542-47.322-50.35-47.322c-27.808,0-50.351,21.187-50.351,47.322c0,7.197,1.717,14.014,4.775,20.122
			c7.979-4.565,17.211-7.188,27.062-7.188C185.253,119.183,196.787,123.414,205.999,130.51z"/>
		<path fill="#FFFFFF" d="M254.821,112.15c-2.861-0.493-5.797-0.765-8.798-0.765c-1.607,0-3.194,0.084-4.763,0.228
			c-14.221,1.306-26.764,8.394-35.26,18.897c-9.212-7.097-20.746-11.328-33.273-11.328c-9.851,0-19.083,2.623-27.062,7.188
			c-6.072,3.475-11.41,8.079-15.73,13.532c-7.375,9.307-11.791,21.065-11.791,33.862c0,30.146,24.437,54.583,54.583,54.583
			c18.325,0,34.528-9.04,44.427-22.893c8.232,5.589,18.169,8.857,28.87,8.857c11.481,0,22.082-3.763,30.643-10.118
			c8.495,11.791,22.333,19.475,37.976,19.475c19.229,0,35.743-11.605,42.936-28.191c8.36,7.809,19.579,12.596,31.921,12.596
			c6.658,0,12.986-1.4,18.72-3.907c6.56,7.191,16.005,11.704,26.506,11.704c19.81,0,35.869-16.059,35.869-35.868
			c0-19.81-16.059-35.869-35.869-35.869c-0.564,0-1.125,0.017-1.684,0.043c-5.049-12.835-15.601-22.894-28.756-27.274
			c0.523-2.801,0.809-5.685,0.809-8.637c0-25.838-20.947-46.785-46.786-46.785c-6.171,0-12.057,1.207-17.451,3.377
			c-9.242-8.847-21.767-14.293-35.572-14.293c-21.218,0-39.432,12.843-47.304,31.178c-2.674,6.226-4.16,13.082-4.16,20.286
			C253.82,105.493,254.168,108.877,254.821,112.15z"/>
		<path fill="#F8971D" d="M330.243,509.685h-58.945c13.987,8.082,26.667,17.188,37.795,27.152c6.78-2.928,13.842-5.577,21.15-7.928
			V509.685z"/>
		<rect x="765.341" y="446.995" fill="#F8971D" width="54.69" height="16.466"/>
		<rect x="632.06" y="478.126" fill="#F8971D" width="59.335" height="16.894"/>
		<rect x="268.582" y="478.126" fill="#F8971D" width="61.661" height="16.894"/>
		<path fill="#F8971D" d="M418.11,480.285c3.116,1.523,5.28,4.693,5.28,8.396c0,2.456-0.959,4.674-2.507,6.339h48.386v-16.894
			h-50.423C418.649,478.867,418.414,479.594,418.11,480.285z"/>
		<path fill="#F8971D" d="M189.583,478.126c5.328,1.229,10.571,2.585,15.732,4.048v-4.048H189.583z"/>
		<path fill="#F8971D" d="M710.08,509.685h-1.372v12.833c0.455-0.166,0.915-0.322,1.372-0.483V509.685z"/>
		<path fill="#F8971D" d="M640.088,530.675c11.068,3.555,21.571,7.796,31.391,12.647c6.216-4.916,12.879-9.291,19.916-13.059
			v-20.579H632.06v16.041C635.195,526.594,637.957,528.337,640.088,530.675z"/>
		<path fill="#F8971D" d="M410.471,512.239c-1.461,0-2.827-0.364-4.061-0.96c-0.376,1.85-1.147,3.555-2.221,5.025v0.096
			c3.044-0.096,6.104-0.151,9.182-0.151c19.425,0,38.184,1.946,55.897,5.554v-12.118h-52.38
			C415.21,511.265,412.957,512.239,410.471,512.239z"/>
		<path fill="#F8971D" d="M820.031,509.685h-54.69v5.195c19.743,1.562,38.279,7.399,54.69,16.583V509.685z"/>
		<rect x="765.341" y="478.126" fill="#F8971D" width="54.69" height="16.894"/>
		<path fill="#F8971D" d="M915.646,463.461c6.32-2.821,12.838-5.451,19.535-7.881c-0.254-0.5-0.491-1.01-0.69-1.538
			c-0.997,0.206-2.028,0.319-3.087,0.319c-5.512,0-10.32-2.959-12.963-7.366h-35.144v16.466H915.646z"/>
		<path fill="#F8971D" d="M883.298,480.601c1.337-0.836,2.69-1.659,4.054-2.475h-4.054V480.601z"/>
		<rect x="708.708" y="478.126" fill="#F8971D" width="1.372" height="16.894"/>
		<path fill="#F8971D" d="M0,478.126v8.076c9.326-3.085,18.974-5.786,28.897-8.076H0z"/>
		<rect x="632.06" y="446.995" fill="#F8971D" width="59.335" height="16.466"/>
		<path fill="#F8971D" d="M408.023,460.416c2.308,0.51,4.403,1.578,6.151,3.045h55.095v-16.466h-65.08v5.797
			C406.235,454.779,407.635,457.436,408.023,460.416z"/>
		<rect x="268.582" y="446.995" fill="#F8971D" width="61.661" height="16.466"/>
		<path fill="#F8971D" d="M188.3,449.929c1.607,2.099,2.6,4.692,2.6,7.54c0,2.173-0.558,4.214-1.535,5.992h15.951v-16.466h-12.98
			C191.207,448.223,189.838,449.229,188.3,449.929z"/>
		<path fill="#F8971D" d="M119.491,454.438c0-2.682,0.648-5.193,1.758-7.442H0v16.466h122.071
			C120.445,460.836,119.491,457.752,119.491,454.438z"/>
		<path fill="#F26522" d="M417.888,497.196c1.209,1.578,1.955,3.528,1.955,5.67c0,2.69-1.14,5.109-2.955,6.818h52.38V495.02h-48.386
			C420.04,495.926,419.029,496.676,417.888,497.196z"/>
		<rect x="765.341" y="495.02" fill="#F26522" width="54.69" height="14.665"/>
		<rect x="632.06" y="495.02" fill="#F26522" width="59.335" height="14.665"/>
		<rect x="708.708" y="495.02" fill="#F26522" width="1.372" height="14.665"/>
		<path fill="#F26522" d="M330.243,495.02h-61.661v13.109c0.913,0.513,1.814,1.035,2.716,1.556h58.945V495.02z"/>
		<rect x="268.582" y="463.461" fill="#F26522" width="61.661" height="14.665"/>
		<path fill="#F26522" d="M205.315,463.461h-15.951c-2.119,3.856-6.217,6.471-10.927,6.471c-1.944,0-3.76-0.483-5.399-1.276
			c-0.418,2.056-1.21,3.972-2.291,5.689c6.377,1.099,12.662,2.356,18.836,3.781h15.732V463.461z"/>
		<path fill="#F26522" d="M109.24,469.147c6.555,0,13.051,0.173,19.479,0.511c-2.736-1.433-5.028-3.582-6.648-6.197H0v14.665h28.897
			C54.126,472.305,81.145,469.147,109.24,469.147z"/>
		<rect x="765.341" y="463.461" fill="#F26522" width="54.69" height="14.665"/>
		<path fill="#F26522" d="M710.08,468.309c-0.88,2.125-1.372,4.447-1.372,6.88v2.938h1.372V468.309z"/>
		<rect x="632.06" y="463.461" fill="#F26522" width="59.335" height="14.665"/>
		<path fill="#F26522" d="M419.337,474.494c0,1.26-0.184,2.471-0.491,3.632h50.423v-14.665h-55.095
			C417.326,466.104,419.337,470.058,419.337,474.494z"/>
		<path fill="#F26522" d="M883.298,478.126h4.054c8.899-5.327,18.354-10.229,28.295-14.665h-32.349V478.126z"/>
		<path fill="#FFC709" d="M600.446,313.226h-99.565v100.291h99.565V313.226z M569.555,336.035v25.242h-9.708v-25.242H569.555z
			 M528.779,336.035v25.242h-9.708v-25.242H528.779z M519.071,391.696v-25.242h9.708v25.242H519.071z M542.371,391.696h-9.708
			v-25.242h9.708V391.696z M542.371,361.276h-9.708v-25.242h9.708V361.276z M559.847,391.696v-25.242h9.708v25.242H559.847z
			 M583.146,391.696h-9.709v-25.242h9.709V391.696z M583.146,361.276h-9.709v-25.242h9.709V361.276z"/>
		<path fill="#FFC709" d="M585.185,249.998h-69.041v47.966h69.041V249.998z M530.923,278.917c0-10.174,8.07-18.53,18.123-19.044
			v27.458h-18.123V278.917z M569.109,287.331h-17.151v-27.408c9.599,0.98,17.151,9.148,17.151,18.994V287.331z"/>
		<polygon fill="#433730" points="585.185,297.964 516.144,297.964 500.881,313.226 600.446,313.226 		"/>
		<polygon fill="#433730" points="632.06,430.959 632.06,430.959 632.06,430.959 		"/>
		<polygon fill="#433730" points="632.06,430.959 600.446,413.517 500.881,413.517 469.268,430.959 469.269,430.959 
			469.269,430.959 		"/>
		<polygon fill="#433730" points="590.635,249.998 576.961,241.096 576.706,241.096 549.875,204.028 523.043,241.097 
			523.314,241.097 510.692,249.998 		"/>
		<path fill="#FFC709" d="M469.269,478.126v16.894v14.665v12.118c6.573,1.339,13.004,2.905,19.269,4.69
			c10.093-2.583,20.58-4.608,31.384-6.028v-21.977c0-17.087,13.979-31.066,31.066-31.066s31.066,13.979,31.066,31.066v20.641
			c6.343,0.553,12.589,1.317,18.728,2.276c0.013,0.002,0.025,0.004,0.039,0.006c7.476,1.169,14.785,2.636,21.907,4.372
			c1.513-0.439,3.11-0.682,4.769-0.682c1.583,0,3.111,0.222,4.563,0.624v-16.041V495.02v-16.894v-14.665v-16.466v-16.036l0,0l0,0
			l0,0H469.269l0,0v16.036v16.466V478.126z M603.736,475.188h-9.708v-25.242h9.708V475.188z M509.565,475.188h-9.708v-25.242h9.708
			V475.188z M495.973,475.188h-9.708v-25.242h9.708V475.188z M486.265,480.366h9.708v25.241h-9.708V480.366z M509.565,505.607
			h-9.708v-25.241h9.708V505.607z M594.028,480.366h9.708v25.241h-9.708V480.366z M617.328,505.607h-9.709v-25.241h9.709V505.607z
			 M617.328,475.188h-9.709v-25.242h9.709V475.188z"/>
		<path fill="#433730" d="M582.054,519.129v-20.641c0-17.087-13.979-31.066-31.066-31.066s-31.066,13.979-31.066,31.066v21.977
			c12.024-1.582,24.436-2.42,37.134-2.42C565.524,518.045,573.868,518.414,582.054,519.129z"/>
		<rect x="486.265" y="449.946" fill="#433730" width="9.708" height="25.242"/>
		<rect x="499.856" y="449.946" fill="#433730" width="9.708" height="25.242"/>
		<rect x="499.856" y="480.366" fill="#433730" width="9.708" height="25.241"/>
		<rect x="486.265" y="480.366" fill="#433730" width="9.708" height="25.241"/>
		<rect x="607.619" y="480.366" fill="#433730" width="9.709" height="25.241"/>
		<rect x="594.028" y="449.946" fill="#433730" width="9.708" height="25.242"/>
		<rect x="607.619" y="449.946" fill="#433730" width="9.709" height="25.242"/>
		<rect x="594.028" y="480.366" fill="#433730" width="9.708" height="25.241"/>
		<rect x="559.847" y="366.454" fill="#433730" width="9.708" height="25.242"/>
		<rect x="573.438" y="336.035" fill="#433730" width="9.709" height="25.242"/>
		<rect x="573.438" y="366.454" fill="#433730" width="9.709" height="25.242"/>
		<rect x="559.847" y="336.035" fill="#433730" width="9.708" height="25.242"/>
		<rect x="519.071" y="366.454" fill="#433730" width="9.708" height="25.242"/>
		<rect x="532.663" y="336.035" fill="#433730" width="9.708" height="25.242"/>
		<rect x="519.071" y="336.035" fill="#433730" width="9.708" height="25.242"/>
		<rect x="532.663" y="366.454" fill="#433730" width="9.708" height="25.242"/>
		<path fill="#433730" d="M551.958,259.923v27.408h17.151v-8.414C569.109,269.071,561.557,260.903,551.958,259.923z"/>
		<path fill="#433730" d="M549.046,259.873c-10.052,0.514-18.123,8.87-18.123,19.044v8.414h18.123V259.873z"/>
		<path fill="#FFC709" d="M691.395,478.126v16.894v14.665v20.579c5.551-2.971,11.331-5.567,17.313-7.746v-12.833V495.02v-16.894
			v-2.938c0-2.433,0.492-4.755,1.372-6.88v-6.842c0-9.967,8.155-18.122,18.123-18.122h5.177c9.968,0,18.123,8.155,18.123,18.122
			v53.025c1.036-0.023,2.075-0.039,3.117-0.039c3.609,0,7.184,0.147,10.721,0.427v-5.195V495.02v-16.894v-14.665v-16.466v-121.64
			h-73.946v121.64v16.466V478.126z M710.326,442.261v-13.106v-2.912v-13.106h16.504v13.106v2.912v13.066h3.884v-13.066v-2.912
			v-13.106h16.504v13.106v2.912v13.106H710.326z M730.714,406.057V392.99v-2.912v-13.106h16.504v13.106v2.912v13.106h-36.892V392.99
			v-2.912v-13.106h16.504v13.106v2.912v13.066H730.714z M709.841,359.901c0-10.174,8.07-18.531,18.122-19.044v-2.153h2.913v2.202
			c9.598,0.981,17.151,9.148,17.151,18.995v8.414h-17.151v3.883h-2.913v-3.883h-18.122V359.901z"/>
		<path fill="#433730" d="M710.08,495.02v14.665v12.35c13.007-4.577,26.929-7.211,41.423-7.542v-53.025
			c0-9.967-8.155-18.122-18.123-18.122h-5.177c-9.968,0-18.123,8.155-18.123,18.122v6.842v9.817V495.02z"/>
		<path fill="#433730" d="M255.569,477.758c0-8.528-6.977-15.506-15.505-15.506h-4.43c-8.528,0-15.505,6.978-15.505,15.506v9.005
			c12.426,4.188,24.276,9.052,35.44,14.532V477.758z"/>
		<path fill="#433730" d="M870.284,477.758c0-8.528-6.978-15.506-15.506-15.506h-4.429c-8.528,0-15.506,6.978-15.506,15.506v44.085
			c9.936-11.786,21.854-22.688,35.44-32.498V477.758z"/>
		<polygon fill="#433730" points="780.227,325.355 780.227,308.689 780.227,308.689 780.227,258.038 770.519,258.038 
			770.519,272.769 761.457,272.769 761.457,258.038 751.748,258.038 751.748,275.843 742.364,275.843 742.364,266.781 
			714.371,266.781 714.371,275.843 704.987,275.843 704.987,258.038 695.278,258.038 695.278,272.769 686.217,272.769 
			686.217,258.038 676.509,258.038 676.509,308.689 676.509,308.689 676.509,325.355 691.395,325.355 765.341,325.355 		"/>
		<rect x="730.714" y="376.972" fill="#433730" width="16.504" height="13.106"/>
		<polygon fill="#433730" points="710.326,392.99 710.326,406.097 747.218,406.097 747.218,392.99 730.714,392.99 730.714,406.057 
			726.83,406.057 726.83,392.99 		"/>
		<rect x="710.326" y="376.972" fill="#433730" width="16.504" height="13.106"/>
		<rect x="710.326" y="390.078" fill="#FFC709" width="16.504" height="2.912"/>
		<rect x="730.714" y="390.078" fill="#FFC709" width="16.504" height="2.912"/>
		<rect x="710.326" y="413.136" fill="#433730" width="16.504" height="13.106"/>
		<polygon fill="#433730" points="747.218,429.154 730.714,429.154 730.714,442.221 726.83,442.221 726.83,429.154 710.326,429.154 
			710.326,442.261 747.218,442.261 		"/>
		<rect x="730.714" y="413.136" fill="#433730" width="16.504" height="13.106"/>
		<rect x="710.326" y="426.242" fill="#FFC709" width="16.504" height="2.912"/>
		<rect x="730.714" y="426.242" fill="#FFC709" width="16.504" height="2.912"/>
		<path fill="#433730" d="M748.027,368.315v-8.414c0-9.847-7.554-18.014-17.151-18.995v27.408H748.027z"/>
		<path fill="#433730" d="M727.963,340.857c-10.052,0.513-18.122,8.87-18.122,19.044v8.414h18.122V340.857z"/>
		<polygon fill="#FFC709" points="727.963,372.198 730.876,372.198 730.876,368.315 730.876,340.907 730.876,338.705 
			727.963,338.705 727.963,340.857 727.963,368.315 		"/>
		<path fill="#FFC709" d="M404.111,516.402c0.026-0.001,0.052-0.001,0.078-0.002v-0.096
			C404.164,516.338,404.136,516.369,404.111,516.402z"/>
		<path fill="#FFC709" d="M330.243,478.126v16.894v14.665v19.225c5.63-1.811,11.405-3.443,17.313-4.888v-48.833
			c0-9.968,8.156-18.122,18.123-18.122h5.177c4.394,0,8.432,1.587,11.578,4.212c0.422-6.753,5.978-12.115,12.837-12.115
			c3.479,0,6.61,1.389,8.917,3.629v-5.797v-121.64h-73.946v121.64v16.466V478.126z M369.562,406.057V392.99v-2.912v-13.106h16.504
			v13.106v2.912v13.106h-36.892V392.99v-2.912v-13.106h16.504v13.106v2.912v13.066H369.562z M365.679,413.136v13.106v2.912v13.066
			h3.883v-13.066v-2.912v-13.106h16.504v13.106v2.912v13.106h-36.892v-13.106v-2.912v-13.106H365.679z M348.689,359.901
			c0-10.174,8.07-18.531,18.123-19.044v-2.153h2.912v2.202c9.598,0.981,17.151,9.148,17.151,18.995v8.414h-17.151v3.883h-2.912
			v-3.883h-18.123V359.901z"/>
		<path fill="#433730" d="M381.696,513.232c-0.852,0.177-1.732,0.273-2.637,0.273c-7.135,0-12.919-5.784-12.919-12.92
			c0-2.919,1.004-5.582,2.637-7.745c-2.251-2.325-3.651-5.481-3.651-8.974c0-6,4.111-10.999,9.656-12.451
			c0.128-4.756,3.301-8.71,7.643-10.061c0.001-0.026,0.007-0.051,0.008-0.077c-3.146-2.625-7.185-4.212-11.578-4.212h-5.177
			c-9.967,0-18.123,8.154-18.123,18.122v48.833c11.845-2.895,24.213-5.031,36.985-6.322
			C383.312,516.432,382.332,514.918,381.696,513.232z"/>
		<polygon fill="#433730" points="419.075,325.355 419.075,308.689 419.075,308.689 419.075,258.038 409.367,258.038 
			409.367,272.769 400.305,272.769 400.305,258.038 390.597,258.038 390.597,275.843 381.212,275.843 381.212,266.781 
			353.219,266.781 353.219,275.843 343.835,275.843 343.835,258.038 334.126,258.038 334.126,272.769 325.065,272.769 
			325.065,258.038 315.356,258.038 315.356,308.689 315.357,308.689 315.357,325.355 330.243,325.355 404.189,325.355 		"/>
		<polygon fill="#433730" points="349.174,392.99 349.174,406.097 386.066,406.097 386.066,392.99 369.562,392.99 369.562,406.057 
			365.679,406.057 365.679,392.99 		"/>
		<rect x="349.174" y="376.972" fill="#433730" width="16.504" height="13.106"/>
		<rect x="369.562" y="376.972" fill="#433730" width="16.504" height="13.106"/>
		<rect x="369.562" y="390.078" fill="#FFC709" width="16.504" height="2.912"/>
		<rect x="349.174" y="390.078" fill="#FFC709" width="16.504" height="2.912"/>
		<rect x="369.562" y="413.136" fill="#433730" width="16.504" height="13.106"/>
		<polygon fill="#433730" points="349.174,442.261 386.066,442.261 386.066,429.154 369.562,429.154 369.562,442.221 
			365.679,442.221 365.679,429.154 349.174,429.154 		"/>
		<rect x="349.174" y="413.136" fill="#433730" width="16.504" height="13.106"/>
		<rect x="349.174" y="426.242" fill="#FFC709" width="16.504" height="2.912"/>
		<rect x="369.562" y="426.242" fill="#FFC709" width="16.504" height="2.912"/>
		<path fill="#433730" d="M366.812,340.857c-10.052,0.513-18.123,8.87-18.123,19.044v8.414h18.123V340.857z"/>
		<path fill="#433730" d="M386.875,368.315v-8.414c0-9.847-7.553-18.014-17.151-18.995v27.408H386.875z"/>
		<polygon fill="#FFC709" points="366.812,372.198 369.724,372.198 369.724,368.315 369.724,340.907 369.724,338.705 
			366.812,338.705 366.812,340.857 366.812,368.315 		"/>
		<path fill="#FFC709" d="M820.031,478.126v16.894v14.665v21.778c1.743,0.976,3.462,1.988,5.156,3.038
			c2.973-4.319,6.188-8.545,9.656-12.658v-44.085c0-8.528,6.978-15.506,15.506-15.506h4.429c8.528,0,15.506,6.978,15.506,15.506
			v11.587c4.183-3.021,8.523-5.938,13.014-8.744v-2.475v-14.665v-16.466v-42.112h-63.267v42.112v16.466V478.126z"/>
		<polygon fill="#433730" points="893.977,404.883 893.977,390.66 893.977,390.66 893.977,347.437 885.691,347.437 885.691,360.007 
			877.959,360.007 877.959,347.437 869.674,347.437 869.674,362.631 861.666,362.631 861.666,354.898 837.778,354.898 
			837.778,362.631 829.771,362.631 829.771,347.437 821.486,347.437 821.486,360.007 813.753,360.007 813.753,347.437 
			805.469,347.437 805.469,390.66 805.469,390.66 805.469,404.883 820.031,404.883 883.298,404.883 		"/>
		<path fill="#FFC709" d="M205.315,478.126v4.048c5.022,1.423,9.961,2.954,14.813,4.589v-9.005c0-8.528,6.978-15.506,15.505-15.506
			h4.43c8.528,0,15.505,6.978,15.505,15.506v23.537c4.448,2.183,8.789,4.462,13.013,6.834V495.02v-16.894v-14.665v-16.466v-42.112
			h-63.267v42.112v16.466V478.126z"/>
		<polygon fill="#433730" points="279.261,404.883 279.261,390.66 279.261,390.66 279.261,347.437 270.977,347.437 270.977,360.007 
			263.244,360.007 263.244,347.437 254.959,347.437 254.959,362.631 246.951,362.631 246.951,354.898 223.063,354.898 
			223.063,362.631 215.055,362.631 215.055,347.437 206.771,347.437 206.771,360.007 199.038,360.007 199.038,347.437 
			190.753,347.437 190.753,390.66 190.753,390.66 190.753,404.883 205.315,404.883 268.582,404.883 		"/>
		<path fill="#778514" d="M399.002,569.727L399.002,569.727L399.002,569.727L399.002,569.727c1.191,0,2.375,0.02,3.562,0.03
			c22.07-19.387,51.752-34.508,85.974-43.264c-6.265-1.785-12.695-3.352-19.269-4.69c-17.714-3.607-36.472-5.554-55.897-5.554
			c-3.079,0-6.138,0.056-9.182,0.151c-0.026,0.001-0.052,0.001-0.078,0.002c0.025-0.033,0.053-0.064,0.078-0.098
			c1.074-1.471,1.845-3.176,2.221-5.025c1.233,0.596,2.599,0.96,4.061,0.96c2.486,0,4.74-0.975,6.417-2.555
			c1.815-1.709,2.955-4.128,2.955-6.818c0-2.142-0.746-4.092-1.955-5.67c1.141-0.521,2.152-1.271,2.995-2.177
			c1.548-1.665,2.507-3.883,2.507-6.339c0-3.702-2.164-6.872-5.28-8.396c0.304-0.691,0.54-1.418,0.736-2.159
			c0.308-1.161,0.491-2.372,0.491-3.632c0-4.437-2.011-8.391-5.163-11.033c-1.748-1.467-3.843-2.535-6.151-3.045
			c-0.388-2.98-1.788-5.637-3.834-7.624c-2.307-2.24-5.439-3.629-8.917-3.629c-6.859,0-12.416,5.362-12.837,12.115
			c-0.001,0.026-0.007,0.051-0.008,0.077c-4.342,1.351-7.515,5.305-7.643,10.061c-5.545,1.452-9.656,6.451-9.656,12.451
			c0,3.492,1.4,6.648,3.651,8.974c-1.633,2.163-2.637,4.826-2.637,7.745c0,7.136,5.784,12.92,12.919,12.92
			c0.904,0,1.785-0.097,2.637-0.273c0.636,1.686,1.615,3.199,2.845,4.467c-12.772,1.291-25.141,3.428-36.985,6.322
			c-5.907,1.444-11.683,3.077-17.313,4.888c-7.309,2.351-14.37,5-21.15,7.928c12.796,11.458,23.552,24.042,31.864,37.509
			c17.176-2.779,35.032-4.35,53.368-4.579C395.879,569.742,397.438,569.727,399.002,569.727z M388.184,520.336
			c1.684,0.814,3.569,1.275,5.568,1.275c1.899,0,3.7-0.414,5.324-1.15c0.592,7.091,1.4,14.061,2.428,16.885l-17.563,0.513
			C383.94,537.858,386.256,529.263,388.184,520.336z"/>
		<path fill="#778514" d="M765.341,514.88c-3.537-0.279-7.111-0.427-10.721-0.427c-1.042,0-2.081,0.016-3.117,0.039
			c-14.494,0.331-28.416,2.965-41.423,7.542c-0.457,0.161-0.917,0.317-1.372,0.483c-5.982,2.179-11.763,4.775-17.313,7.746
			c-7.037,3.768-13.7,8.143-19.916,13.059c9.128,4.51,17.663,9.545,25.516,15.041c21.106-3.692,43.221-5.659,66.008-5.659
			c17.07,0,33.759,1.115,49.935,3.221c3.396-7.368,7.501-14.521,12.251-21.424c-1.694-1.05-3.413-2.063-5.156-3.038
			C803.62,522.279,785.084,516.441,765.341,514.88z"/>
		<path fill="#8C9B1B" d="M644.451,540.064c8.602,1.903,15.045,9.549,15.045,18.722c0,2.742-0.596,5.339-1.632,7.7
			c0.408,0.199,0.8,0.426,1.183,0.666c12.208-3.555,24.884-6.504,37.947-8.789c-7.853-5.496-16.388-10.531-25.516-15.041
			c-9.819-4.852-20.322-9.093-31.391-12.647C642.409,533.221,643.983,536.467,644.451,540.064z"/>
		<path fill="#8C9B1B" d="M575.837,537.19c-9.362,16.282-8.823,48.986-32.486,63.724c7.718,3.711,15.112,7.714,22.159,11.981
			c7.39-5.613,15.275-10.914,23.623-15.86c-0.241-1.147-0.373-2.336-0.373-3.555c0-3.882,1.336-7.423,3.507-10.299
			c-2.993-3.092-4.854-7.289-4.854-11.933c0-7.979,5.467-14.626,12.84-16.558c0.171-6.324,4.39-11.581,10.163-13.378
			c0.419-7.394,5.47-13.543,12.313-15.53c-7.122-1.736-14.432-3.203-21.907-4.372c1.686,0.263,3.362,0.54,5.03,0.833
			C592.836,523.692,581.203,527.859,575.837,537.19z"/>
		<path fill="#8C9B1B" d="M402.563,569.757c27.862,0.266,54.626,3.631,79.594,9.62c20.07-3.688,37.761-11.146,41.539-25.722
			c4.142-15.975,19.651-28.619,40.56-35.485c12.506,0.311,24.723,1.398,36.525,3.235c-6.139-0.959-12.385-1.724-18.728-2.276
			c-8.186-0.715-16.529-1.084-24.999-1.084c-12.698,0-25.109,0.838-37.134,2.42c-10.804,1.42-21.291,3.445-31.384,6.028
			C454.316,535.249,424.633,550.37,402.563,569.757z"/>
		<path fill="#F89842" d="M564.256,518.17c-20.909,6.866-36.417,19.511-40.56,35.485c-3.778,14.575-21.469,22.033-41.539,25.722
			c21.948,5.265,42.505,12.55,61.193,21.537c23.663-14.737,23.124-47.441,32.486-63.724c5.366-9.331,16.999-13.498,30.014-14.946
			c-1.668-0.293-3.345-0.57-5.03-0.833c-0.014-0.002-0.026-0.004-0.039-0.006C588.979,519.568,576.762,518.48,564.256,518.17z"/>
		<path fill="#95A41E" d="M35.569,626.65c-6.082-6.283-9.864-14.813-9.864-24.248c0-16.214,11.108-29.721,26.092-33.646
			c0.347-12.852,8.92-23.534,20.653-27.186c1.039-18.347,16.104-32.944,34.711-32.944c17.737,0,32.225,13.276,34.455,30.406
			c17.478,3.867,30.573,19.402,30.573,38.044c0,5.573-1.21,10.851-3.317,15.646c8.421,4.116,14.269,12.683,14.269,22.686
			c0,8.292-4.007,15.618-10.173,20.227c8.214,0.933,16.317,2.091,24.279,3.494c34.751-31.934,85.294-55.331,143.71-64.783
			c-8.312-13.467-19.067-26.051-31.864-37.509c-11.128-9.964-23.808-19.07-37.795-27.152c-0.902-0.521-1.803-1.043-2.716-1.556
			c-4.225-2.372-8.565-4.651-13.013-6.834c-11.165-5.48-23.015-10.345-35.44-14.532c-4.852-1.635-9.791-3.166-14.813-4.589
			c-5.161-1.463-10.404-2.818-15.732-4.048c-6.174-1.425-12.458-2.683-18.836-3.781c-1.788,2.843-4.38,5.123-7.463,6.521
			c0.787,9.429,1.863,18.696,3.229,22.451l-23.354,0.682c0,0,3.081-11.429,5.643-23.299c-3.955-1.91-7.063-5.297-8.626-9.445
			c-1.133,0.234-2.304,0.362-3.506,0.362c-2.871,0-5.572-0.714-7.95-1.958c-6.429-0.338-12.925-0.511-19.479-0.511
			c-28.096,0-55.114,3.157-80.343,8.979c-9.924,2.29-19.571,4.991-28.897,8.076v166.855c9.252-3.128,18.781-5.931,28.567-8.368
			C29.141,637.935,31.703,631.773,35.569,626.65z"/>
		<path fill="#9AA91F" d="M308.271,639.414c-26.62-33.667,24.941-56.16,74.13-69.273c3.955-0.177,7.926-0.311,11.923-0.374
			c-18.336,0.229-36.192,1.8-53.368,4.579c-58.417,9.452-108.959,32.85-143.71,64.783c65.407,11.526,121.713,38.559,160.095,75.023
			c9.155-5.844,19.029-11.164,29.524-15.895C362.176,682.642,329.718,666.537,308.271,639.414z"/>
		<path fill="#9AA91F" d="M565.51,612.896c-7.047-4.268-14.441-8.271-22.159-11.981c-18.688-8.987-39.246-16.272-61.193-21.537
			c-24.968-5.989-51.731-9.354-79.594-9.62c-1.187-0.011-2.37-0.03-3.561-0.03h0c4.645,0,9.255,0.096,13.834,0.271
			c0.766,0.028,1.521,0.086,2.284,0.119c3.938,0.175,7.859,0.388,11.745,0.687c0.449,0.034,0.891,0.081,1.34,0.116
			c4.256,0.343,8.487,0.744,12.676,1.229c0.099,0.012,0.197,0.025,0.296,0.036c4.483,0.523,8.929,1.124,13.331,1.803
			c-56.183,20.487-75.823,75.462-14.513,77.776c26.804,1.011,50.06,10.227,68.749,21.457c0.139,0,0.276-0.003,0.416-0.003
			c1.196,0,2.386,0.018,3.579,0.03C524.527,650.748,542.597,630.3,565.51,612.896z"/>
		<path fill="#9AA91F" d="M1049.668,438.538c0.787,9.429,1.863,18.696,3.229,22.452l-23.354,0.681c0,0,3.081-11.429,5.644-23.298
			c-1.213-0.587-2.348-1.308-3.381-2.151c-18.199,1.028-35.849,3.381-52.741,6.921c-0.614,5.477-5.256,9.736-10.896,9.736
			c-1.71,0-3.309-0.426-4.752-1.124c-0.977,4.803-4.23,8.773-8.584,10.746c0.692,8.3,1.639,16.457,2.841,19.763l-20.556,0.6
			c0,0,2.711-10.06,4.966-20.508c-2.976-1.438-5.399-3.83-6.901-6.775c-6.697,2.43-13.215,5.06-19.535,7.881
			c-9.94,4.437-19.396,9.338-28.295,14.665c-1.363,0.815-2.717,1.639-4.054,2.475c-4.49,2.807-8.831,5.724-13.014,8.744
			c-13.586,9.81-25.505,20.712-35.44,32.498c-3.468,4.113-6.684,8.339-9.656,12.658c-4.75,6.903-8.855,14.056-12.251,21.424
			c73.292,9.539,135.923,39.673,174.554,81.286c10.134-5.341,20.832-10.037,32.008-14.022c-7.746-2.588-13.335-9.886-13.335-18.502
			c0-4.41,1.517-8.433,3.983-11.701c-3.4-3.513-5.516-8.281-5.516-13.557c0-9.065,6.211-16.617,14.588-18.812
			c0.194-7.186,4.987-13.158,11.548-15.199c0.581-10.258,9.003-18.419,19.406-18.419c9.917,0,18.017,7.423,19.264,17
			c9.772,2.162,17.093,10.848,17.093,21.27c0,3.116-0.676,6.067-1.854,8.749c4.707,2.301,7.978,7.09,7.978,12.683
			c0,5.729-3.419,10.635-8.313,12.864c1.826,2.385,2.954,5.331,2.954,8.566c0,0.199-0.021,0.393-0.03,0.589
			c2.895-0.237,5.81-0.416,8.735-0.563v-169.99c-13.627-1.617-27.629-2.482-41.914-2.533
			C1052.778,436.814,1051.294,437.801,1049.668,438.538z"/>
		<path fill="#AAB923" d="M662.104,585.459c-1.214,1.493-2.761,2.705-4.534,3.513c1.607,2.099,2.6,4.692,2.6,7.54
			c0,6.883-5.579,12.463-12.462,12.463c-1.944,0-3.761-0.483-5.4-1.276c-1.108,5.457-4.807,9.968-9.753,12.21
			c0.786,9.429,1.862,18.696,3.229,22.451l-23.354,0.682c0,0,3.081-11.429,5.643-23.299c-3.954-1.911-7.063-5.297-8.626-9.446
			c-1.133,0.235-2.305,0.363-3.506,0.363c-8.27,0-15.169-5.843-16.807-13.624c-8.348,4.946-16.233,10.247-23.623,15.86
			c-22.913,17.404-40.983,37.853-52.771,60.353c40.097,0.434,77.615,8.119,109.889,21.229
			c38.91-19.107,85.665-31.193,136.321-33.567c0.514-0.025,1.027-0.045,1.542-0.067c2.194-0.095,4.396-0.17,6.605-0.228
			c0.698-0.019,1.396-0.04,2.096-0.055c2.696-0.056,5.398-0.093,8.114-0.093c0.021,0,0.043-0.001,0.064-0.001
			c0.061,0,0.122,0.002,0.184,0.002c2.371,0.001,4.734,0.025,7.092,0.068c0.791,0.015,1.576,0.043,2.365,0.062
			c0.396,0.01,0.791,0.021,1.186,0.031C756.568,623.09,706.17,599.679,662.104,585.459z"/>
		<path fill="#AAB923" d="M763.002,552.704c-22.787,0-44.901,1.967-66.008,5.659c-13.063,2.285-25.739,5.234-37.947,8.789
			c0.022,0.015,0.045,0.028,0.067,0.043c23.332-6.799,48.358-11.394,74.555-13.363c110.104,21.644,166.604,84.243,193.888,129.604
			c16.266-18.232,36.601-33.929,59.934-46.225c-38.631-41.613-101.262-71.747-174.554-81.286
			C796.761,553.819,780.072,552.704,763.002,552.704z"/>
		<path fill="#B9C927" d="M357.341,714.152c-38.381-36.465-94.688-63.497-160.095-75.023c-7.961-1.403-16.064-2.562-24.279-3.494
			c-1.453,1.085-3.024,2.022-4.694,2.783c3.267,4.265,5.283,9.534,5.283,15.321c0,13.987-11.338,25.327-25.326,25.327
			c-3.95,0-7.64-0.982-10.972-2.595c-2.254,11.091-9.767,20.266-19.82,24.821c1.599,19.158,3.786,37.985,6.562,45.615l-47.459,1.384
			c0,0,6.261-23.224,11.468-47.345c-8.036-3.884-14.352-10.765-17.53-19.195c-2.302,0.477-4.682,0.736-7.125,0.736
			c-19.28,0-34.909-15.629-34.909-34.909c0-0.975,0.042-1.938,0.123-2.89c-9.787,2.438-19.315,5.24-28.567,8.368v126.993h296.609
			C308.282,754.549,329.479,731.937,357.341,714.152z"/>
		<path fill="#FBB15D" d="M733.669,553.832c-26.196,1.97-51.223,6.564-74.555,13.363c3.459,2.209,5.771,6.045,5.771,10.453
			c0,2.967-1.047,5.678-2.781,7.811c44.066,14.22,94.465,37.631,126.094,75.171c1.24,0.034,2.48,0.065,3.715,0.111
			c0.893,0.033,1.78,0.077,2.67,0.116c1.531,0.066,3.06,0.138,4.583,0.222c0.896,0.05,1.788,0.107,2.682,0.163
			c1.531,0.096,3.059,0.198,4.582,0.312c0.85,0.063,1.696,0.13,2.543,0.199c1.591,0.129,3.176,0.269,4.758,0.416
			c0.762,0.071,1.524,0.144,2.284,0.219c1.723,0.172,3.438,0.357,5.148,0.552c0.604,0.069,1.211,0.135,1.814,0.206
			c2.012,0.238,4.015,0.494,6.012,0.763c0.294,0.04,0.59,0.076,0.883,0.116c12.016,1.648,23.733,3.855,35.104,6.572
			c0.001,0,0.001,0,0.001,0c20.283,4.847,39.444,11.325,57.15,19.212c1.757-2.156,3.565-4.282,5.431-6.373
			C900.272,638.075,843.772,575.476,733.669,553.832z"/>
		<path fill="#FBB15D" d="M454.509,573.987c-4.401-0.679-8.847-1.279-13.331-1.803c-0.099-0.011-0.197-0.024-0.296-0.036
			c-4.188-0.485-8.42-0.887-12.676-1.229c-0.449-0.035-0.891-0.082-1.34-0.116c-3.886-0.299-7.808-0.512-11.745-0.687
			c-0.764-0.033-1.518-0.091-2.284-0.119c-4.579-0.175-9.19-0.271-13.834-0.271l0,0h0c-1.564,0-3.123,0.016-4.678,0.04
			c-3.997,0.063-7.968,0.197-11.923,0.374c-49.188,13.113-100.75,35.606-74.13,69.273c21.446,27.123,53.905,43.228,78.593,58.844
			c34.996-15.775,76.868-24.98,121.88-25.037c-18.689-11.23-41.945-20.446-68.749-21.457
			C378.686,649.449,398.326,594.475,454.509,573.987z"/>
		<path fill="#B4C425" d="M1073.135,622.291c-2.208,0-4.271-0.549-6.135-1.451c-1.26,6.2-5.461,11.326-11.081,13.873
			c0.894,10.713,2.116,21.241,3.669,25.508l-26.534,0.773c0,0,3.501-12.983,6.411-26.47c-4.492-2.171-8.023-6.019-9.801-10.732
			c-1.287,0.267-2.617,0.412-3.983,0.412c-2.163,0-4.237-0.366-6.183-1.016c-11.176,3.985-21.874,8.682-32.008,14.022
			c-23.333,12.296-43.668,27.992-59.934,46.225c-1.865,2.091-3.674,4.217-5.431,6.373c25.633,11.418,48.206,25.779,66.707,42.386
			c16.317-6.136,33.79-9.464,51.958-9.464c19.381,0,37.969,3.792,55.209,10.736V608.156c-2.926,0.147-5.841,0.326-8.735,0.563
			C1086.954,616.265,1080.757,622.291,1073.135,622.291z"/>
		<path fill="#B4C425" d="M622.628,694.478c-32.273-13.11-69.792-20.796-109.889-21.229c-1.192-0.013-2.382-0.03-3.579-0.03
			c-0.139,0-0.277,0.003-0.416,0.003c-45.013,0.057-86.884,9.262-121.88,25.037c-10.495,4.73-20.369,10.051-29.524,15.895
			c-27.861,17.784-49.059,40.396-60.731,65.898h230.993C546.093,745.371,579.555,715.629,622.628,694.478z"/>
		<path fill="#CBDB2A" d="M988.833,732.194c16.061,14.416,29.06,30.516,38.306,47.856H1096v-46.584
			c-17.24-6.944-35.828-10.736-55.209-10.736C1022.623,722.73,1005.15,726.059,988.833,732.194z"/>
		<path fill="#B9C927" d="M777.307,660.468c-2.716,0-5.418,0.037-8.114,0.093C771.888,660.504,774.591,660.468,777.307,660.468z"/>
		<path fill="#B9C927" d="M787.012,660.599c1.637,0.04,3.272,0.083,4.9,0.143c-1.234-0.046-2.475-0.077-3.715-0.111
			C787.803,660.619,787.407,660.608,787.012,660.599z"/>
		<path fill="#B9C927" d="M784.646,660.537c-2.357-0.043-4.721-0.067-7.092-0.068C779.926,660.47,782.289,660.494,784.646,660.537z"
			/>
		<path fill="#B9C927" d="M767.097,660.615c-2.209,0.058-4.411,0.133-6.605,0.228C762.686,660.747,764.888,660.674,767.097,660.615z
			"/>
		<path fill="#B9C927" d="M799.165,661.079c-1.523-0.084-3.052-0.155-4.583-0.222C796.113,660.924,797.642,660.994,799.165,661.079z
			"/>
		<path fill="#B9C927" d="M806.429,661.554c-1.523-0.113-3.051-0.216-4.582-0.312C803.378,661.338,804.906,661.44,806.429,661.554z"
			/>
		<path fill="#B9C927" d="M813.729,662.169c-1.582-0.147-3.167-0.287-4.758-0.416C810.563,661.882,812.148,662.021,813.729,662.169z
			"/>
		<path fill="#B9C927" d="M828.988,663.908c-1.997-0.269-4-0.524-6.012-0.763C824.988,663.384,826.992,663.639,828.988,663.908z"/>
		<path fill="#B9C927" d="M821.162,662.939c-1.711-0.194-3.426-0.38-5.148-0.552C817.735,662.561,819.451,662.745,821.162,662.939z"
			/>
		<path fill="#B9C927" d="M864.975,670.597c-11.37-2.717-23.088-4.924-35.104-6.572
			C841.885,665.675,853.605,667.878,864.975,670.597z"/>
		<path fill="#B9C927" d="M708.141,666.74c16.371-3.016,33.357-5.002,50.809-5.83c-50.656,2.374-97.411,14.46-136.321,33.567
			c-43.073,21.151-76.535,50.894-95.026,85.573h66.569C613.528,722.254,662.07,687.425,708.141,666.74z"/>
		<path fill="#B9C927" d="M988.833,732.194c-18.501-16.606-41.074-30.968-66.707-42.386c-17.706-7.887-36.867-14.365-57.149-19.212
			c9.143,2.187,18.059,4.704,26.717,7.533c-67.552,16.979-113.345,57.843-144.156,101.921h279.602
			C1017.893,762.71,1004.894,746.61,988.833,732.194z"/>
		<path fill="#FFCE75" d="M891.693,678.13c-8.658-2.829-17.574-5.347-26.717-7.533c0,0-0.001,0-0.002,0
			c-11.369-2.719-23.09-4.922-35.104-6.572c-0.293-0.04-0.589-0.076-0.883-0.116c-1.996-0.27-4-0.524-6.012-0.763
			c-0.604-0.071-1.21-0.137-1.814-0.206c-1.711-0.194-3.427-0.379-5.148-0.552c-0.76-0.075-1.522-0.147-2.284-0.219
			c-1.581-0.148-3.167-0.287-4.758-0.416c-0.847-0.069-1.693-0.136-2.543-0.199c-1.522-0.113-3.051-0.216-4.582-0.312
			c-0.894-0.056-1.786-0.113-2.682-0.163c-1.523-0.085-3.052-0.155-4.583-0.222c-0.89-0.039-1.777-0.083-2.67-0.116
			c-1.628-0.06-3.264-0.103-4.9-0.143c-0.789-0.019-1.574-0.047-2.365-0.062c-2.357-0.043-4.721-0.067-7.092-0.068
			c-0.062,0-0.123-0.002-0.184-0.002c-0.021,0-0.043,0.001-0.064,0.001c-2.716,0-5.419,0.036-8.114,0.093
			c-0.7,0.015-1.397,0.036-2.096,0.055c-2.209,0.059-4.411,0.132-6.605,0.228c-0.515,0.022-1.028,0.042-1.542,0.067
			c-17.451,0.828-34.438,2.814-50.809,5.83c-46.07,20.685-94.612,55.514-113.97,113.311h153.366
			C778.349,735.973,824.142,695.108,891.693,678.13z"/>
		<path fill="#FFFFFF" d="M826.425,257.184c0,19.104,15.486,34.59,34.59,34.59c11.612,0,21.881-5.729,28.154-14.507
			c5.218,3.542,11.514,5.613,18.295,5.613c7.276,0,13.993-2.384,19.419-6.412c5.383,7.472,14.152,12.341,24.065,12.341
			c12.187,0,22.65-7.354,27.209-17.865c5.298,4.948,12.407,7.982,20.229,7.982c4.22,0,8.229-0.887,11.863-2.476
			c4.157,4.557,10.143,7.417,16.797,7.417c12.554,0,22.73-10.177,22.73-22.73s-10.177-22.73-22.73-22.73
			c-0.357,0-0.713,0.011-1.067,0.027c-3.199-8.134-9.886-14.508-18.223-17.284c0.332-1.774,0.513-3.603,0.513-5.473
			c0-16.375-13.274-29.648-29.648-29.648c-3.91,0-7.641,0.764-11.059,2.14c-5.857-5.607-13.794-9.058-22.543-9.058
			c-18.012,0-32.613,14.602-32.613,32.613c0,2.196,0.221,4.34,0.634,6.415c-1.813-0.313-3.673-0.485-5.575-0.485
			c-10.247,0-19.385,4.729-25.363,12.12c-5.838-4.497-13.147-7.178-21.086-7.178C841.911,222.594,826.425,238.081,826.425,257.184z"
			/>
		<path fill="#FFFFFF" d="M753.542,121.921c3.849,0,7.299-1.664,9.702-4.299c2.104,0.922,4.426,1.442,6.87,1.442
			c4.525,0,8.629-1.767,11.692-4.631c2.633,6.084,8.685,10.345,15.736,10.345c5.738,0,10.806-2.83,13.917-7.159
			c3.139,2.333,7.015,3.731,11.226,3.731c10.415,0,18.857-8.443,18.857-18.857s-8.442-18.857-18.857-18.857
			c-1.103,0-2.178,0.114-3.229,0.296c0.241-1.205,0.371-2.449,0.371-3.724c0-10.415-8.442-18.857-18.856-18.857
			c-5.06,0-9.644,2.003-13.03,5.247c-1.979-0.797-4.135-1.247-6.398-1.247c-9.468,0-17.144,7.675-17.144,17.143
			c0,1.084,0.112,2.142,0.305,3.17c-4.826,1.605-8.69,5.294-10.539,10.004c-0.208-0.01-0.412-0.031-0.623-0.031
			c-7.258,0-13.143,5.884-13.143,13.143C740.399,116.037,746.284,121.921,753.542,121.921z"/>
		<path fill="#FFCE75" d="M88.009,700.947c-5.207,24.121-11.468,47.345-11.468,47.345L124,746.908
			c-2.776-7.63-4.962-26.457-6.562-45.615c-4.387,1.987-9.254,3.1-14.385,3.1C97.652,704.393,92.558,703.145,88.009,700.947z"/>
		<path fill="#778514" d="M183.141,615.408c0-10.003-5.848-18.569-14.269-22.686c2.106-4.796,3.317-10.073,3.317-15.646
			c0-18.642-13.095-34.177-30.573-38.044c-2.23-17.13-16.718-30.406-34.455-30.406c-18.607,0-33.672,14.598-34.711,32.944
			c-11.733,3.651-20.307,14.334-20.653,27.186c-14.983,3.926-26.092,17.433-26.092,33.646c0,9.436,3.782,17.965,9.864,24.248
			c-3.867,5.123-6.428,11.284-7.002,18.039c-0.081,0.952-0.123,1.915-0.123,2.89c0,19.28,15.629,34.909,34.909,34.909
			c2.443,0,4.823-0.26,7.125-0.736c3.179,8.431,9.495,15.312,17.53,19.195c4.549,2.197,9.643,3.445,15.045,3.445
			c5.13,0,9.998-1.112,14.385-3.1c10.053-4.556,17.566-13.73,19.82-24.821c3.332,1.612,7.022,2.595,10.972,2.595
			c13.987,0,25.326-11.34,25.326-25.327c0-5.787-2.017-11.057-5.283-15.321c1.669-0.761,3.241-1.698,4.694-2.783
			C179.134,631.026,183.141,623.7,183.141,615.408z"/>
		<path fill="#FFCE75" d="M148.802,480.699c-2.562,11.87-5.643,23.299-5.643,23.299l23.354-0.682
			c-1.366-3.755-2.442-13.022-3.229-22.451c-2.159,0.979-4.553,1.529-7.078,1.529C153.547,482.395,151.041,481.781,148.802,480.699z
			"/>
		<path fill="#778514" d="M122.071,463.461c1.62,2.615,3.912,4.765,6.648,6.197c2.378,1.244,5.079,1.958,7.95,1.958
			c1.202,0,2.373-0.128,3.506-0.362c1.564,4.148,4.672,7.535,8.626,9.445c2.239,1.082,4.745,1.695,7.404,1.695
			c2.525,0,4.919-0.551,7.078-1.529c3.083-1.397,5.676-3.678,7.463-6.521c1.08-1.718,1.873-3.634,2.291-5.689
			c1.639,0.793,3.456,1.276,5.399,1.276c4.71,0,8.809-2.614,10.927-6.471c0.977-1.778,1.535-3.819,1.535-5.992
			c0-2.848-0.992-5.441-2.6-7.54c1.538-0.7,2.906-1.706,4.035-2.934c2.033-2.21,3.281-5.147,3.281-8.389
			c0-4.923-2.878-9.138-7.021-11.163c1.037-2.36,1.632-4.957,1.632-7.7c0-9.173-6.444-16.818-15.045-18.721
			c-1.097-8.43-8.227-14.963-16.955-14.963c-9.156,0-16.57,7.183-17.081,16.212c-5.774,1.797-9.993,7.054-10.164,13.377
			c-7.373,1.932-12.839,8.579-12.839,16.558c0,4.644,1.861,8.841,4.854,11.933c-0.671,0.89-1.251,1.85-1.748,2.856
			c-1.11,2.249-1.758,4.761-1.758,7.442C119.491,457.752,120.445,460.836,122.071,463.461z"/>
		<path fill="#FFCE75" d="M618.071,619.742c-2.562,11.87-5.643,23.299-5.643,23.299l23.354-0.682
			c-1.366-3.755-2.442-13.022-3.229-22.451c-2.159,0.979-4.554,1.529-7.078,1.529C622.816,621.438,620.311,620.824,618.071,619.742z
			"/>
		<path fill="#778514" d="M610.415,541.313c-5.773,1.797-9.992,7.054-10.163,13.378c-7.373,1.932-12.84,8.579-12.84,16.558
			c0,4.644,1.861,8.841,4.854,11.933c-2.171,2.876-3.507,6.417-3.507,10.299c0,1.219,0.132,2.407,0.373,3.555
			c1.638,7.781,8.537,13.624,16.807,13.624c1.201,0,2.373-0.128,3.506-0.363c1.563,4.149,4.672,7.535,8.626,9.446
			c2.239,1.082,4.745,1.695,7.404,1.695c2.524,0,4.919-0.551,7.078-1.529c4.946-2.242,8.645-6.753,9.753-12.21
			c1.64,0.793,3.456,1.276,5.4,1.276c6.883,0,12.462-5.58,12.462-12.463c0-2.848-0.992-5.441-2.6-7.54
			c1.773-0.808,3.32-2.02,4.534-3.513c1.734-2.133,2.781-4.844,2.781-7.811c0-4.408-2.312-8.244-5.771-10.453
			c-0.022-0.015-0.045-0.028-0.067-0.043c-0.383-0.24-0.774-0.467-1.183-0.666c1.036-2.361,1.632-4.958,1.632-7.7
			c0-9.173-6.443-16.818-15.045-18.722c-0.468-3.598-2.042-6.844-4.363-9.39c-2.131-2.338-4.893-4.081-8.028-4.949
			c-1.452-0.402-2.98-0.624-4.563-0.624c-1.658,0-3.256,0.242-4.769,0.682C615.885,527.771,610.834,533.92,610.415,541.313z"/>
		<path fill="#FFCE75" d="M401.503,537.346c-1.027-2.824-1.836-9.794-2.428-16.885c-1.624,0.736-3.424,1.15-5.324,1.15
			c-2,0-3.885-0.461-5.568-1.275c-1.927,8.927-4.244,17.522-4.244,17.522L401.503,537.346z"/>
		<path fill="#FFCE75" d="M1035.187,438.373c-2.563,11.869-5.644,23.298-5.644,23.298l23.354-0.681
			c-1.365-3.756-2.441-13.023-3.229-22.452c-2.159,0.979-4.553,1.53-7.078,1.53C1039.932,440.068,1037.425,439.454,1035.187,438.373
			z"/>
		<path fill="#778514" d="M1042.59,440.068c2.525,0,4.919-0.552,7.078-1.53c1.626-0.737,3.11-1.724,4.418-2.905
			c2.672-2.412,4.592-5.642,5.336-9.305c1.64,0.794,3.456,1.277,5.399,1.277c6.883,0,12.463-5.58,12.463-12.463
			c0-2.849-0.993-5.441-2.601-7.54c4.308-1.963,7.316-6.281,7.316-11.323c0-4.922-2.878-9.138-7.021-11.163
			c1.037-2.36,1.633-4.957,1.633-7.7c0-9.173-6.444-16.818-15.045-18.721c-1.098-8.43-8.227-14.963-16.955-14.963
			c-9.156,0-16.57,7.184-17.082,16.212c-5.773,1.797-9.992,7.054-10.163,13.377c-7.373,1.932-12.839,8.579-12.839,16.557
			c0,4.644,1.86,8.841,4.854,11.933c-2.171,2.877-3.506,6.417-3.506,10.299c0,9.487,7.69,17.179,17.179,17.179
			c1.202,0,2.373-0.128,3.507-0.362c1.084,2.876,2.91,5.387,5.245,7.295c1.033,0.844,2.168,1.564,3.381,2.151
			C1037.425,439.454,1039.932,440.068,1042.59,440.068z"/>
		<path fill="#FFCE75" d="M1039.465,634.524c-2.91,13.486-6.411,26.47-6.411,26.47l26.534-0.773
			c-1.553-4.267-2.775-14.795-3.669-25.508c-2.453,1.111-5.173,1.738-8.042,1.738
			C1044.856,636.451,1042.009,635.753,1039.465,634.524z"/>
		<path fill="#778514" d="M1029.664,623.792c1.777,4.714,5.309,8.562,9.801,10.732c2.544,1.229,5.392,1.927,8.412,1.927
			c2.869,0,5.589-0.627,8.042-1.738c5.62-2.547,9.821-7.673,11.081-13.873c1.863,0.902,3.927,1.451,6.135,1.451
			c7.622,0,13.819-6.026,14.13-13.571c0.009-0.196,0.03-0.39,0.03-0.589c0-3.235-1.128-6.182-2.954-8.566
			c4.894-2.229,8.313-7.136,8.313-12.864c0-5.593-3.271-10.382-7.978-12.683c1.178-2.682,1.854-5.633,1.854-8.749
			c0-10.422-7.32-19.107-17.093-21.27c-1.247-9.577-9.347-17-19.264-17c-10.403,0-18.825,8.161-19.406,18.419
			c-6.561,2.041-11.354,8.014-11.548,15.199c-8.377,2.194-14.588,9.746-14.588,18.812c0,5.275,2.115,10.044,5.516,13.557
			c-2.467,3.269-3.983,7.291-3.983,11.701c0,8.616,5.589,15.914,13.335,18.502c1.945,0.649,4.02,1.016,6.183,1.016
			C1027.047,624.204,1028.377,624.059,1029.664,623.792z"/>
		<path fill="#FFCE75" d="M948.601,463.849c-2.341,0-4.547-0.541-6.518-1.493c-2.255,10.448-4.966,20.508-4.966,20.508l20.556-0.6
			c-1.202-3.306-2.148-11.463-2.841-19.763C952.932,463.363,950.823,463.849,948.601,463.849z"/>
		<path fill="#778514" d="M931.404,454.361c1.059,0,2.09-0.113,3.087-0.319c0.199,0.528,0.437,1.038,0.69,1.538
			c1.502,2.945,3.926,5.337,6.901,6.775c1.971,0.952,4.177,1.493,6.518,1.493c2.223,0,4.331-0.485,6.231-1.348
			c4.354-1.973,7.607-5.943,8.584-10.746c1.443,0.698,3.042,1.124,4.752,1.124c5.641,0,10.282-4.26,10.896-9.736
			c0.045-0.405,0.074-0.816,0.074-1.234c0-2.506-0.874-4.789-2.289-6.637c3.791-1.727,6.439-5.527,6.439-9.966
			c0-4.333-2.533-8.043-6.18-9.825c0.912-2.078,1.437-4.363,1.437-6.778c0-8.074-5.672-14.803-13.243-16.478
			c-0.965-7.42-7.24-13.17-14.924-13.17c-8.059,0-14.584,6.323-15.034,14.269c-5.082,1.582-8.796,6.209-8.946,11.775
			c-6.489,1.7-11.301,7.551-11.301,14.573c0,4.088,1.639,7.781,4.272,10.503c-1.911,2.532-3.086,5.648-3.086,9.065
			c0,2.839,0.797,5.485,2.157,7.755C921.084,451.402,925.893,454.361,931.404,454.361z"/>
	</g>
</g>
<g id="Designed_by_Vecteezy">
</g>
</svg>
